<?xml version="1.0" encoding="utf-8"?>
<!-- Generator: Adobe Illustrator 21.0.0, SVG Export Plug-In . SVG Version: 6.00 Build 0)  -->
<svg version="1.0" id="Calque_1" xmlns="http://www.w3.org/2000/svg" xmlns:xlink="http://www.w3.org/1999/xlink" x="0px" y="0px"
	 viewBox="0 0 595.3 841.9" style="enable-background:new 0 0 595.3 841.9;" xml:space="preserve">
<style type="text/css">
	.st0{fill:#5C4925;}
	.st1{fill:#C3D66C;}
	.st2{fill:#FFFFFF;}
	.st3{font-family:'Oxygen-Regular';}
	.st4{font-size:21.3978px;}
	.st5{font-family:'Oxygen-Light';}
	.st6{font-size:14.0952px;}
	.st7{font-size:11.2084px;}
	.st8{font-size:8.0535px;}
	.st9{fill:none;stroke:#FFFFFF;stroke-width:2;}
	.st10{fill:none;stroke:#FFFFFF;stroke-width:0.5;}
</style>
<g>
	
		<ellipse transform="matrix(0.3209 -0.9471 0.9471 0.3209 -183.3987 586.2164)" class="st0" cx="317.1" cy="421" rx="62.7" ry="80"/>
	<g>
		<path class="st1" d="M210.2,376.7c-0.8,16.2,7.6,19.6,20.1,22.8C226.2,383.7,225.7,382.4,210.2,376.7z"/>
		<path class="st1" d="M257.7,372.1c-18.1,5.2-19.7,16.2-18.5,31.1C255.1,392.8,257.2,391.2,257.7,372.1z"/>
		<path class="st1" d="M235.1,384.8c7.5-10.6,3.1-15.8-4-23.3C227,374,227.1,374.3,235.1,384.8z"/>
		<path class="st1" d="M239.9,412.9c22.4,7.8,29.2-2.6,38.8-18.8C254.7,393.3,254.2,393.6,239.9,412.9z"/>
		<path class="st1" d="M227,418.2c2.8,17.8-6.3,23.9-19.8,28.9C209.9,429,210.6,426.3,227,418.2z"/>
		<path class="st1" d="M228.6,407.4c-13.8,15-23.2,9.9-37.1,1.6C209.5,398.6,210,398.6,228.6,407.4z"/>
		<path class="st1" d="M239.5,420.9c4.6,15.8,6.6,18.1,19.5,18.4C255.4,427.1,255.4,424.1,239.5,420.9z"/>
		<path class="st1" d="M222.1,458.7c18.5-9.6,1.8-31.8,13.5-70.9c-2.4,31.8,4,63.2,26,77.2C245.7,458.1,234.7,457.1,222.1,458.7z"/>
	</g>
	<g>
		<text transform="matrix(1 0 0 1 282.3799 413.7227)" class="st2 st3 st4">Cabanes</text>
		<text transform="matrix(1 0 0 1 265.0799 434.8227)" class="st2 st5 st6"> </text>
		<text transform="matrix(1 0 0 1 268.2799 434.8227)" class="st2 st5 st7">de</text>
		<text transform="matrix(1 0 0 1 280.7799 434.8227)" class="st2 st5 st6"> Fontaine-Châtel</text>
		<text transform="matrix(1 0 0 1 289.2627 467.9566)" class="st2 st5 st8">HAUTE-NORMANDIE</text>
		<text transform="matrix(1 0 0 1 315.7925 386.2657)" class="st2 st5 st7">Les</text>
		<text transform="matrix(1 0 0 1 332.3925 386.2657)" class="st2 st3 st7"> </text>
		<line class="st9" x1="309.9" y1="378.8" x2="309.9" y2="413.7"/>
		<line class="st10" x1="289" y1="452.8" x2="363.7" y2="452.8"/>
	</g>
</g>
</svg>
